<svg aria-hidden="true" style="position:absolute;width:0;height:0" 
    xmlns="http://www.w3.org/2000/svg" overflow="hidden">
    <defs>
        <symbol id="BOOK-2" viewBox="0 0 32 32">
            <path d="M30.23 25.042L17 30.517a1.363 1.363 0 0 1-1.086 0L2.683 25.042a1.37 1.37 0 0 1-.855-1.27V2.743a1.37 1.37 0 0 1 1.895-1.267l.002.001.012.005 12.718 5.263 12.718-5.263.012-.005.002-.001a1.371 1.371 0 0 1 1.895 1.267v21.029c0 .574-.354 1.067-.855 1.27zM15.086 9.145L4.572 4.794v18.06l10.514 4.351V9.145zm13.257-4.351L17.829 9.145v18.06l10.514-4.351V4.794zm-8.339 6.3l5.029-2.286a1.372 1.372 0 0 1 1.135 2.497l-5.029 2.286a1.372 1.372 0 0 1-1.135-2.497zm0 5.029l5.029-2.286a1.372 1.372 0 0 1 1.135 2.497l-5.029 2.286v-.001a1.372 1.372 0 0 1-1.135-2.496zm0 5.028l5.029-2.286a1.372 1.372 0 0 1 1.135 2.497l-5.029 2.286a1.372 1.372 0 0 1-1.135-2.497zM7.314 8.685c.202 0 .394.044.567.123l5.029 2.286a1.372 1.372 0 0 1-1.134 2.497l-5.029-2.286a1.372 1.372 0 0 1 .568-2.62zm0 5.029c.202 0 .394.044.567.123l5.029 2.286a1.371 1.371 0 1 1-1.134 2.496v.001l-5.029-2.286a1.371 1.371 0 0 1 .568-2.619zm0 5.028c.202 0 .394.044.567.123l5.029 2.286a1.372 1.372 0 0 1-1.134 2.497l-5.029-2.286a1.372 1.372 0 0 1 .568-2.62z"/>
        </symbol>
        <symbol id="border" viewBox="0 0 32 32">
            <path d="M28.889 30.222H3.111a1.333 1.333 0 0 1-1.333-1.333V3.111c0-.737.597-1.333 1.333-1.333h25.778c.736 0 1.333.597 1.333 1.333v25.778c0 .736-.597 1.333-1.333 1.333zM27.556 4.444H4.445v23.111h23.111V4.444zm-20 1.333h4.889a1.333 1.333 0 0 1 0 2.667h-4v4a1.333 1.333 0 1 1-2.666 0V7.555 5.777h1.778zM5.778 19.555a1.334 1.334 0 0 1 2.666 0v4h4v.001a1.333 1.333 0 1 1 0 2.667H5.777v-1.778-4.889zM19.556 5.777h6.667v6.667a1.333 1.333 0 1 1-2.666 0v-4h-4a1.333 1.333 0 0 1 0-2.667zm0 17.778v-.001h4v-4a1.334 1.334 0 0 1 2.666 0v6.667h-6.667a1.333 1.333 0 0 1 0-2.667z"/>
        </symbol>
        <symbol id="buy" viewBox="0 0 32 32">
            <path d="M29.962 9.86l.002.001-3.96 8.8a1.318 1.318 0 0 1-1.116.775l-11.404.76.659 1.883h12.418a2.64 2.64 0 1 1-2.64 2.641h-12.32a2.64 2.64 0 1 1-2.64-2.641h2.386L6.265 7.56H3.241a1.32 1.32 0 0 1 0-2.64h3.96c.576 0 1.061.371 1.241.886l.005-.002L9.216 8h19.545a1.32 1.32 0 0 1 1.202 1.861zm-19.824.78l2.44 6.971 11.343-.756 2.797-6.215h-16.58z"/>
        </symbol>
        <symbol id="COMPUTER-_-OK" viewBox="0 0 32 32">
            <path d="M29.177 24.941h-7.059-1.882v2.353l1.882 1.883v.471H9.883v-.471l1.882-1.883v-2.353H9.883 2.824c-.78 0-1.412-.632-1.412-1.412V4.706c0-.78.632-1.411 1.412-1.411h26.353c.78 0 1.412.632 1.412 1.411v18.823c0 .78-.632 1.412-1.412 1.412zm-.471-19.765H3.294v16h25.412v-16zm-15.53 6.588c.39 0 .743.158.998.413l.884.884 2.766-2.766a1.412 1.412 0 0 1 1.997 1.996l-3.765 3.765a1.408 1.408 0 0 1-1.996 0l-1.882-1.883a1.412 1.412 0 0 1 .999-2.41z"/>
        </symbol>
        <symbol id="facebook" viewBox="0 0 32 32">
            <path d="M22.168 2.426v4.547s-3.352-.334-4.191.95c-.459.702-.186 2.758-.227 4.234h4.446c-.376 1.726-.645 2.896-.921 4.39h-3.549v14.128h-6.159V16.602H8.946v-4.446h2.592c.133-3.25.183-6.471 1.797-8.11 1.815-1.843 3.545-1.622 8.834-1.622z"/>
        </symbol>
        <symbol id="HOME" viewBox="0 0 32 32">
            <path fill="var(--color1, #95e1d3)" d="M31.086 16.914a1.37 1.37 0 0 1-1.371 1.371c-.361 0-.687-.142-.932-.37l-.003.003L16.494 5.631V5.63l-.035-.033v-.001L4.165 17.89l-.001-.001a1.37 1.37 0 1 1-1.913-1.964L15.47 2.706c.25-.259.6-.421.988-.421h.001l.072.002.011.001.062.005.004.001c.336.036.635.194.853.428l.001-.001 5.396 5.396v-1.26a1.371 1.371 0 1 1 2.742 0v4.003l5.118 5.118-.003.003c.228.245.371.571.371.932zM28.343 19.2v9.599c0 .757-.614 1.372-1.371 1.372h-2.743V19.199h-5.486v10.972h-12.8a1.371 1.371 0 0 1-1.371-1.372v-3.657-1.828V19.2L16.458 7.315 28.344 19.2zm-14.172 0H8.685v5.486h5.486V19.2z"/>
        </symbol>
        <symbol id="instagram" viewBox="0 0 32 32">
            <path d="M27.086 30.628H5.143a3.657 3.657 0 0 1-3.657-3.657V5.028a3.657 3.657 0 0 1 3.657-3.657h21.943a3.657 3.657 0 0 1 3.657 3.657v21.943a3.657 3.657 0 0 1-3.657 3.657zM16.114 10.331a5.665 5.665 0 0 0-5.141 3.292h-.005l-.025.063c-.054.12-.101.243-.147.367-.022.06-.045.118-.065.178a5.715 5.715 0 0 0-.109.388c-.015.061-.034.121-.047.183-.03.138-.05.279-.07.42-.008.057-.02.113-.026.171a5.668 5.668 0 0 0 5.636 6.275 5.668 5.668 0 0 0 5.636-6.275c-.006-.058-.018-.114-.026-.171a5.746 5.746 0 0 0-.07-.42c-.013-.062-.032-.122-.047-.183a5.557 5.557 0 0 0-.109-.388c-.02-.06-.043-.118-.065-.178a5.847 5.847 0 0 0-.147-.367l-.025-.063h-.005a5.666 5.666 0 0 0-5.141-3.292zm11.337-4.206c0-.808-.655-1.463-1.463-1.463h-2.926c-.808 0-1.463.655-1.463 1.463v2.926c0 .808.655 1.463 1.463 1.463h2.926c.808 0 1.463-.655 1.463-1.463V6.125zm0 7.497h-2.697a8.96 8.96 0 1 1-17.28 0H4.777v12.251c0 .809.655 1.463 1.463 1.463h19.749c.808 0 1.463-.655 1.463-1.463V13.622z"/>
        </symbol>
        <symbol id="LINE-GRAPH" viewBox="0 0 32 32">
            <path d="M28.8 31.086H2.286a1.371 1.371 0 0 1-1.371-1.372V3.2c0-.757.614-1.371 1.371-1.371H28.8c.757 0 1.372.614 1.372 1.371v26.514c0 .757-.614 1.372-1.372 1.372zM27.429 4.571H3.658v23.772h23.771V4.571zM5.683 16.675l-.001-.001 3.657-2.286.001.001a1.367 1.367 0 0 1 1.485.032l.005-.008 6.062 4.041 6.984-4.929a1.371 1.371 0 0 1 1.612 2.218v.001l-7.771 5.486v-.001a1.368 1.368 0 0 1-1.591.011l-6.086-4.057-2.867 1.792a1.371 1.371 0 0 1-1.491-2.301z"/>
        </symbol>
        <symbol id="pinterest" viewBox="0 0 32 32">
            <path d="M14.401 19.701c-.231.919-.463 1.883-.704 2.825-.238.929-.446 1.871-.792 2.725-.573 1.414-1.3 2.78-2.255 3.886-.634.736-.499.442-.69.402-.146-.03-.158-.173-.187-.38-.155-1.124-.05-2.422.008-3.685.066-1.438.368-2.635.649-3.83.535-2.277 1.044-4.51 1.584-6.801.036-.152.133-.405.099-.491-.244-.637-.403-1.208-.473-1.876a5.968 5.968 0 0 1 .154-2.144c.305-1.167 1.007-2.202 2.09-2.58.688-.239 1.451-.131 1.914.146.477.285.804.735.957 1.374.163.679.043 1.491-.088 2.088-.295 1.344-.682 2.354-1.034 3.652-.175.644-.372 1.305-.209 1.999.15.638.482 1.077.935 1.407.469.342 1.025.529 1.793.503 1.355-.047 2.296-.914 2.926-1.73 1.006-1.307 1.616-3.072 1.848-5.171.075-.677.129-1.455.077-2.222-.096-1.417-.54-2.556-1.243-3.439-.669-.841-1.618-1.511-2.772-1.888-1.144-.374-2.729-.498-4.136-.257-2.557.438-4.36 1.891-5.423 3.898a7.815 7.815 0 0 0-.924 3.763c0 1.159.286 2.058.748 2.758.146.222.362.405.506.659.204.36-.031.895-.132 1.284-.121.469-.134 1.117-.682 1.128-.227.004-.512-.162-.704-.268-1.439-.796-2.314-2.243-2.673-4.121a9.864 9.864 0 0 1 0-3.573c.21-1.066.601-2.05 1.034-2.848.898-1.658 2.215-2.984 3.817-3.931 1.232-.729 2.621-1.239 4.311-1.485a18.003 18.003 0 0 1 1.771-.145c1.84-.087 3.514.33 4.774.893a9.752 9.752 0 0 1 3.288 2.368c.924 1.009 1.597 2.184 2.024 3.652.222.763.439 1.58.439 2.524 0 .946-.2 1.78-.34 2.613-.523 3.121-2.007 5.673-4.235 7.125a7.306 7.306 0 0 1-1.936.893c-.736.215-1.576.375-2.475.313a5.07 5.07 0 0 1-2.189-.637c-.596-.337-1.097-.749-1.452-1.373z"/>
        </symbol>
        <symbol id="search" viewBox="0 0 32 32">
            <path d="M29.307 25.572a2.64 2.64 0 0 1-3.734 3.734l-7.737-7.737a10.488 10.488 0 0 1-5.356 1.471c-5.832 0-10.56-4.727-10.56-10.56S6.648 1.92 12.48 1.92s10.56 4.728 10.56 10.56c0 1.958-.542 3.784-1.47 5.356l7.737 7.737zM12.48 4.559a7.92 7.92 0 1 0 0 15.84 7.92 7.92 0 0 0 0-15.84z"/>
        </symbol>
        <symbol id="time" viewBox="0 0 32 32">
            <path d="M29.873 10.826a14.794 14.794 0 0 0-7.757-7.758 5.506 5.506 0 0 1 3.415-1.186 5.53 5.53 0 0 1 5.529 5.529 5.5 5.5 0 0 1-1.186 3.415zm-.226 6.115c0 3.626-1.423 6.911-3.729 9.355l1.909 1.909a1.396 1.396 0 1 1-1.974 1.974l-2.05-2.05a13.571 13.571 0 0 1-7.802 2.459c-2.898 0-5.579-.909-7.789-2.45l-2.036 2.036a1.41 1.41 0 0 1-2.41-.998c0-.389.158-.743.413-.998l1.894-1.893a13.585 13.585 0 0 1-3.719-9.344c0-7.537 6.11-13.647 13.647-13.647s13.647 6.11 13.647 13.647zM16 6.117c-5.978 0-10.824 4.846-10.824 10.824S10.022 27.765 16 27.765s10.823-4.846 10.823-10.824S21.977 6.117 16 6.117zm5.647 12.236H16c-.78 0-1.412-.632-1.412-1.412v-7.53a1.412 1.412 0 0 1 2.824 0v6.118h4.235a1.412 1.412 0 1 1 0 2.824zM2.153 11.017A5.613 5.613 0 0 1 .941 7.529a5.647 5.647 0 0 1 5.647-5.647 5.62 5.62 0 0 1 3.488 1.211 15.112 15.112 0 0 0-7.923 7.923z"/>
        </symbol>
        <symbol id="twitter" viewBox="0 0 32 32">
            <path d="M21.157 4.115c2.325-.042 3.562.806 4.744 1.883 1.003-.086 2.307-.646 3.075-1.037l.747-.408c-.439 1.185-1.033 2.113-1.947 2.817-.203.156-.405.368-.659.467v.014c1.303-.013 2.377-.601 3.397-.92v.015c-.536.851-1.261 1.716-2.035 2.336l-.937.744c.017 1.38-.02 2.696-.278 3.855-1.499 6.737-5.471 11.311-11.758 13.27-2.258.704-5.906.993-8.493.35-1.283-.318-2.441-.678-3.529-1.153a13.993 13.993 0 0 1-1.699-.877l-.527-.321c.583.018 1.266.178 1.918.073.59-.095 1.169-.07 1.713-.189 1.358-.298 2.563-.692 3.602-1.3.504-.295 1.268-.64 1.625-1.065-.674.012-1.286-.145-1.786-.321-1.942-.685-3.072-1.946-3.807-3.84.588.065 2.283.218 2.68-.116-.741-.041-1.453-.47-1.962-.788-1.562-.978-2.836-2.616-2.826-5.139l.615.292c.392.166.791.254 1.259.351.198.041.593.157.82.072H5.08c-.302-.351-.795-.586-1.098-.963-1.002-1.245-1.941-3.162-1.347-5.446.151-.579.39-1.09.644-1.562l.029.014c.117.245.377.424.542.628.512.634 1.143 1.205 1.786 1.708 2.192 1.715 4.166 2.768 7.336 3.548.804.198 1.734.35 2.694.351-.27-.786-.183-2.057.029-2.818.534-1.912 1.695-3.29 3.397-4.029a7.172 7.172 0 0 1 1.332-.409l.732-.087z"/>
        </symbol>
    </defs>
</svg>